<svg width="55" height="55" viewBox="0 0 55 55" fill="none" xmlns="http://www.w3.org/2000/svg">
<path fill-rule="evenodd" clip-rule="evenodd" d="M33.0273 9.50128C33.3996 8.96956 34.1325 8.84034 34.6642 9.21265L35.4635 9.77234C35.9952 10.1447 36.1245 10.8775 35.7522 11.4092L32.7766 15.6588C34.5275 16.2183 35.7205 16.8217 35.7205 16.8217C35.7205 16.8217 32.8046 21.8373 27.8589 21.8373C22.9133 21.8373 19.399 17.1626 19.399 17.1626C19.399 17.1626 20.6451 16.3674 22.4922 15.6853L19.2434 11.8134C18.8261 11.3162 18.891 10.5749 19.3882 10.1576L20.1357 9.53039C20.633 9.11315 21.3743 9.17801 21.7915 9.67525L26.092 14.8003C26.5203 14.7519 26.9566 14.7248 27.3969 14.7248C28.0298 14.7248 28.6619 14.7729 29.2789 14.8545L33.0273 9.50128ZM34.6319 22.0748C35.9517 21.1322 37.9488 18.672 37.9488 18.672C37.9488 18.672 43.05 22.7144 43.05 31.2859C43.05 39.8574 34.2309 45.0161 34.2309 45.0161C34.2309 45.0161 30.0172 40.7608 28.9828 35.3665C27.9484 29.9723 30.5129 23.9826 30.5129 23.9826C30.5129 23.9826 33.3121 23.0174 34.6319 22.0748ZM20.4181 22.0748C19.0983 21.1322 17.1012 18.672 17.1012 18.672C17.1012 18.672 12 22.7144 12 31.2859C12 39.8574 20.8192 45.0161 20.8192 45.0161C20.8192 45.0161 25.0328 40.7608 26.0672 35.3665C27.1016 29.9723 24.5371 23.9826 24.5371 23.9826C24.5371 23.9826 21.7379 23.0174 20.4181 22.0748Z" fill="#9DC130"/>
</svg>
