<svg width="55" height="55" viewBox="0 0 55 55" fill="none" xmlns="http://www.w3.org/2000/svg">
<path fill-rule="evenodd" clip-rule="evenodd" d="M40.2727 28C40.2727 37.9411 32.2138 46 22.2727 46C19.2901 46 16.4769 45.2746 14 43.9905C16.3366 43.8978 18.5253 43.1266 20.4251 41.841C21.109 41.9457 21.8095 42 22.5227 42C30.1166 42 36.2727 35.8439 36.2727 28.25C36.2727 20.6561 30.1166 14.5 22.5227 14.5C22.0132 14.5 21.5102 14.5277 21.0151 14.5817C18.9843 13.0432 16.5825 12.112 14.0001 12.0094C16.477 10.7254 19.2901 10 22.2727 10C32.2138 10 40.2727 18.0589 40.2727 28Z" fill="#5F606D"/>
</svg>
