<svg width="55" height="55" viewBox="0 0 55 55" fill="none" xmlns="http://www.w3.org/2000/svg">
<path fill-rule="evenodd" clip-rule="evenodd" d="M29.4869 26.9214C29.7308 26.7725 29.9378 26.4608 30.1048 26.1143C32.3017 27.0122 33.8455 29.1339 33.8455 31.6083C33.8455 34.8954 31.1209 37.5602 27.76 37.5602C26.3803 37.5602 25.1078 37.1111 24.0871 36.3542C23.7523 36.1958 23.4769 36.0435 23.2515 35.9189L23.2515 35.9188L23.2514 35.9188C22.9018 35.7255 22.6725 35.5987 22.5289 35.6185C22.1092 35.6764 22.2311 36.0626 22.3418 36.4134C22.417 36.6517 22.487 36.8737 22.3786 36.9652C22.2651 37.0611 21.8975 36.7106 21.4679 36.3011C20.8833 35.7436 20.1838 35.0767 19.854 35.277C19.5931 35.4354 19.8463 35.8651 20.1563 36.391L20.1793 36.43C20.3102 36.6524 20.4619 36.8787 20.6004 37.0853L20.6004 37.0853C20.8818 37.5052 21.1085 37.8435 20.9951 37.9008C20.858 37.97 19.9028 37.3252 19.0977 36.43C18.787 36.0846 18.486 35.7101 18.2064 35.3621L18.2063 35.3621C17.5941 34.6003 17.0841 33.9657 16.7978 34.0409C16.4534 34.1313 16.7139 34.8417 17.0967 35.5254C17.2758 35.8451 17.4864 36.1707 17.6687 36.4526C17.9523 36.8909 18.1675 37.2236 18.0894 37.2645C17.9841 37.3196 17.0573 36.4158 16.4278 35.277C16.054 34.6005 15.74 33.8529 15.4858 33.2477C15.2102 32.5914 15.0049 32.1025 14.8697 32.0533C14.4 31.8824 14.4 32.8401 14.5884 34.2224C14.6128 34.4018 14.6492 34.59 14.6939 34.7816C16.52 40.6944 22.1332 45 28.7745 45C36.8967 45 43.4811 38.5602 43.4811 30.6163C43.4811 23.0554 37.5164 16.8571 29.9381 16.2769C29.9477 15.9207 30.1336 15.2144 30.1336 15.2144C30.1336 15.2144 31.4714 11.9775 31.5421 11.2859C31.5468 11.2401 31.5524 11.1904 31.5583 11.1375L31.5583 11.1369C31.6417 10.3896 31.7967 9 30.6013 9C29.9628 9 29.6659 9.47493 29.3264 10.0181C29.196 10.2266 29.0594 10.4452 28.8947 10.6509C27.7087 12.132 25.7143 13.9816 24.5835 14.9669C22.1933 17.0497 19.8482 18.7614 18.4805 19.7597L18.4805 19.7597C17.8584 20.2137 17.4385 20.5202 17.3086 20.6469C16.3294 21.6014 12.8186 27.9342 12.8186 27.9342C12.8186 27.9342 11.6832 29.966 12.0868 30.378C12.4903 30.7901 13.4635 30.6956 13.4635 30.6956C13.4635 30.6956 26.5374 27.6963 27.708 27.4597C28.0231 27.3961 28.2456 27.3593 28.4164 27.3311C28.8801 27.2545 28.9633 27.2408 29.4869 26.9214ZM20.2431 23.067C19.5413 23.7341 18.3774 25.3263 18.3774 25.3263C18.3774 25.3263 20.5405 25.4596 21.7319 24.3272C22.9232 23.1947 22.6502 21.2648 22.6502 21.2648C22.6502 21.2648 20.9449 22.3999 20.2431 23.067Z" fill="#0773C7"/>
</svg>
