<svg width="55" height="55" viewBox="0 0 55 55" fill="none" xmlns="http://www.w3.org/2000/svg">
<path fill-rule="evenodd" clip-rule="evenodd" d="M16.6199 38.1583L22.1956 36.5416L27.1552 45.6099C27.2472 45.7782 27.4889 45.7782 27.5809 45.6099L32.5405 36.5416L38.1162 38.1583C38.3004 38.2117 38.4708 38.0404 38.4164 37.8565L36.8016 32.3984L45.6099 27.5809C45.7782 27.4889 45.7782 27.2472 45.6099 27.1552L36.726 22.2964L38.4164 16.5829C38.4708 16.399 38.3004 16.2276 38.1162 16.281L32.4004 17.9384L27.5809 9.12619C27.4889 8.95794 27.2472 8.95794 27.1552 9.12619L22.3357 17.9384L16.6199 16.281C16.4357 16.2276 16.2653 16.399 16.3197 16.5829L18.0101 22.2964L9.12619 27.1552C8.95794 27.2472 8.95794 27.4889 9.12619 27.5809L17.9346 32.3983L16.3197 37.8565C16.2653 38.0404 16.4357 38.2117 16.6199 38.1583ZM21.219 27.6297L25.088 29.7457L27.204 33.6148C27.2961 33.783 27.5377 33.783 27.6297 33.6148L29.7457 29.7457L33.6148 27.6297C33.783 27.5377 33.783 27.296 33.6148 27.204L29.7457 25.088L27.6297 21.2189C27.5377 21.0507 27.2961 21.0507 27.204 21.2189L25.088 25.088L21.219 27.204C21.0507 27.296 21.0507 27.5377 21.219 27.6297Z" fill="#EF97E6"/>
</svg>
