<svg width="55" height="55" viewBox="0 0 55 55" fill="none" xmlns="http://www.w3.org/2000/svg">
<path fill-rule="evenodd" clip-rule="evenodd" d="M15.8873 11.75C15.8873 10.7835 16.6708 10 17.6373 10H22.0791C22.8266 10 23.4646 10.4686 23.7154 11.1281C24.0332 10.8023 24.4771 10.6 24.9682 10.6H29.41C30.3765 10.6 31.16 11.3835 31.16 12.35V12.4811C31.3267 12.4284 31.5041 12.4 31.6882 12.4H36.13C37.0965 12.4 37.88 13.1835 37.88 14.15V14.8H38.4082H38.5736H42.85C43.8165 14.8 44.6 15.5835 44.6 16.55L44.6 30.7L44.6 32.2085C44.6 32.4879 44.5335 32.7575 44.4117 32.9982C43.1944 40.3578 36.2207 46 27.8 46C18.5216 46 11 39.15 11 30.7C11 26.6212 12.7525 22.9152 15.6092 20.1724C15.6021 24.1516 15.6692 28.2667 15.9789 28.196C16.9097 27.9838 15.9789 12.4772 15.9789 12.4772L15.8873 12.6094V11.75Z" fill="#D94256"/>
</svg>
