<svg width="55" height="55" viewBox="0 0 55 55" fill="none" xmlns="http://www.w3.org/2000/svg">
<path fill-rule="evenodd" clip-rule="evenodd" d="M34.2681 37.8012C34.713 36.1748 33.8496 32.8311 33.8496 32.8311C33.8496 32.8311 33.2234 35.555 32.2449 36.5617C31.4101 37.4205 30.3874 38.0161 28.9206 38.1726C30.1198 37.5901 30.9446 36.3756 30.9446 34.9718C30.9446 33.0012 29.3195 31.4037 27.3149 31.4037C25.3103 31.4037 23.6852 33.0012 23.6852 34.9718C23.6852 35.51 23.8064 36.0204 24.0235 36.478C22.7697 35.4792 22.5725 33.8777 22.5725 33.8777C22.5725 33.8777 21.1725 39.6904 25.0303 42.4247C28.888 45.1591 36.4451 42.8088 36.4451 42.8088C36.4451 42.8088 25.6304 50.4183 17.6166 42.1363C10.7134 35.002 15.8148 25.6096 15.8148 25.6096C15.8148 25.6096 15.5945 26.4809 15.5945 27.4923C15.5945 28.5038 16.1429 29.2733 16.1429 29.2733C16.1429 29.2733 17.7787 25.8253 19.0518 24.4231C20.2567 23.096 21.7671 22.0196 23.0716 21.09C24.0759 20.3743 24.9581 19.7456 25.4851 19.1563C28.3874 15.9111 26.6078 10 26.6078 10C26.6078 10 29.8794 12.8842 30.7928 16.6092C31.141 18.0291 30.917 19.6447 30.7167 21.0894C30.3916 23.4347 30.1288 25.3299 32.4776 25.2069C36.2732 25.0082 32.975 19.1563 32.975 19.1563C32.975 19.1563 41.5849 23.6816 40.9416 31.5961C40.2984 39.5107 31.5306 41.3099 31.5306 41.3099C31.5306 41.3099 33.8233 39.4276 34.2681 37.8012Z" fill="#F8A54F"/>
</svg>
