<svg width="55" height="55" viewBox="0 0 55 55" fill="none" xmlns="http://www.w3.org/2000/svg">
<path fill-rule="evenodd" clip-rule="evenodd" d="M28 46C37.9411 46 46 37.9411 46 28C46 18.0589 37.9411 10 28 10C18.0589 10 10 18.0589 10 28C10 37.9411 18.0589 46 28 46ZM21.25 23.0433V24.4657C21.25 24.9983 21.6818 25.4301 22.2144 25.4301H25.4688C25.4687 26.9518 24.2095 28.1854 22.6562 28.1854C21.1029 28.1854 19.8438 26.9518 19.8438 25.4301C19.8438 24.4102 20.4093 23.5197 21.25 23.0433ZM29.9688 25.4301L33.2231 25.4301C33.7557 25.4301 34.1875 24.9983 34.1875 24.4657V23.0433C35.0282 23.5197 35.5938 24.4102 35.5938 25.4301C35.5938 26.9518 34.3346 28.1854 32.7812 28.1854C31.2279 28.1854 29.9688 26.9518 29.9688 25.4301Z" fill="#6970C5"/>
</svg>
