<svg width="55" height="55" viewBox="0 0 55 55" fill="none" xmlns="http://www.w3.org/2000/svg">
<path fill-rule="evenodd" clip-rule="evenodd" d="M16.0143 41.512C21.9377 45.2715 30.8021 43.7473 37.0468 37.5027C44.0763 30.4732 45.1242 20.1242 39.3874 14.3874C33.6506 8.65058 23.3015 9.69848 16.2721 16.7279C9.24264 23.7574 8.19474 34.1064 13.9315 39.8432C14.0402 39.9518 14.1504 40.058 14.2623 40.1618L19.0119 34.3013L19.0119 27.8318L20.593 32.6965L24.0038 28.8514L23.3381 24.4454L25.2292 27.1139L30.1262 21.6211L26.6834 27.8318L30.1262 28.8514L25.7723 29.8052L21.9474 33.6996L27.966 34.3013L20.593 35.8932L16.0143 41.512Z" fill="#5DBE62"/>
</svg>
