<svg width="55" height="55" viewBox="0 0 55 55" fill="none" xmlns="http://www.w3.org/2000/svg">
<path fill-rule="evenodd" clip-rule="evenodd" d="M17.198 40.2853C17.0592 40.2853 16.9621 40.148 17.0084 40.0171L26.1685 14.134C26.1969 14.0537 26.2729 14 26.3581 14H36.0132C36.0987 14 36.1749 14.0541 36.2031 14.1349L45.2273 40.018C45.2729 40.1487 45.1758 40.2853 45.0374 40.2853H17.213H17.198ZM9.20131 40.388C9.06091 40.388 8.96371 40.2478 9.01296 40.1164L15.7927 22.0161C15.8222 21.9376 15.8972 21.8855 15.9811 21.8855H21.5977C21.7371 21.8855 21.8343 22.024 21.7868 22.1551L15.2309 40.2554C15.2021 40.335 15.1265 40.388 15.0418 40.388H9.20131Z" fill="#D78555"/>
</svg>
