<svg width="55" height="55" viewBox="0 0 55 55" fill="none" xmlns="http://www.w3.org/2000/svg">
<path fill-rule="evenodd" clip-rule="evenodd" d="M36.6698 12.7451L36.7806 22.4729L28.2959 26.5459L28.1913 17.3611L36.6698 12.7451Z" fill="#7ED4C9"/>
<path fill-rule="evenodd" clip-rule="evenodd" d="M45.1752 28.0737L36.7759 32.8779L28.3718 28.066L36.7716 23.6538L45.1752 28.0737Z" fill="#7ED4C9"/>
<path fill-rule="evenodd" clip-rule="evenodd" d="M26.8778 28.0737L18.4786 32.8779L10.0744 28.066L18.4743 23.6538L26.8778 28.0737Z" fill="#7ED4C9"/>
<path fill-rule="evenodd" clip-rule="evenodd" d="M18.3843 12.7053L27.102 17.0229L26.8791 26.4318L18.6479 22.3552L18.3843 12.7053Z" fill="#7ED4C9"/>
<path fill-rule="evenodd" clip-rule="evenodd" d="M36.9071 43.2947L28.1893 38.9771L28.4122 29.5682L36.6434 33.6448L36.9071 43.2947Z" fill="#7ED4C9"/>
<path fill-rule="evenodd" clip-rule="evenodd" d="M18.6853 43.3823L18.5746 33.6546L27.0592 29.5816L27.1638 38.7664L18.6853 43.3823Z" fill="#7ED4C9"/>
</svg>
