<svg width="55" height="55" viewBox="0 0 55 55" fill="none" xmlns="http://www.w3.org/2000/svg">
<path fill-rule="evenodd" clip-rule="evenodd" d="M18.9474 46C20.6473 46 22.138 44.7987 22.9737 42.9944C23.8094 44.7987 25.3001 46 27 46C28.5495 46 29.9253 45.0018 30.7895 43.4587C31.6537 45.0018 33.0294 46 34.5789 46C37.195 46 39.3158 43.1548 39.3158 39.6451C39.3158 38.9535 39.2334 38.2877 39.0812 37.6644C42.7165 34.7575 45 30.5577 45 25.8871C45 17.1129 36.9411 10 27 10C17.0589 10 9 17.1129 9 25.8871C9 30.3891 11.1216 34.4537 14.5305 37.3446C14.3239 38.058 14.2105 38.8338 14.2105 39.6451C14.2105 43.1548 16.3313 46 18.9474 46ZM26.7632 34.268C32.6493 34.268 37.4211 30.6569 37.4211 26.2023C37.4211 21.7476 32.6493 18.1365 26.7632 18.1365C20.877 18.1365 16.1053 21.7476 16.1053 26.2023C16.1053 30.6569 20.877 34.268 26.7632 34.268Z" fill="#B563CE"/>
</svg>
