<svg width="55" height="55" viewBox="0 0 55 55" fill="none" xmlns="http://www.w3.org/2000/svg">
<path fill-rule="evenodd" clip-rule="evenodd" d="M41.7916 39.8958C41.7916 39.8958 37.2522 43.5365 28.219 42.0298C21.3657 40.8868 17.7104 33.332 17.7104 29.2712C17.7104 19.6433 24.8363 17.4523 29.6539 17.4523C34.4715 17.4523 37.6142 22.1492 37.6142 25.7857C37.6142 29.4223 35.0421 32.6031 31.0395 32.6031C27.0369 32.6031 25.8514 29.793 25.8514 27.2096C25.8514 24.6261 27.9416 23.7159 29.8478 23.7159C31.7541 23.7159 32.4068 25.3434 32.4068 26.7421C32.4068 28.1409 31.3215 28.6418 30.4163 28.6418C29.5111 28.6418 29.4216 28.1851 29.0751 27.7052C28.7287 27.2253 29.517 25.4087 28.219 25.4087C26.9211 25.4087 26.6791 27.4971 26.6791 27.4971C26.6791 27.4971 27.1523 31.5283 31.0395 31.4587C34.9267 31.3891 36.7708 28.384 36.2349 25.4087C35.699 22.4334 32.8115 19.2718 27.7437 19.9106C22.676 20.5495 20.6069 25.6699 21.5189 31.1419C22.431 36.614 28.9864 39.7845 34.1407 38.6438C39.295 37.5032 44.4286 33.7717 44.4286 24.3109C44.4286 14.8501 36.2349 9.16327 26.4646 10.1005C16.6943 11.0377 10.6294 19.5795 11.0176 29.8427C11.4058 40.1059 21.1443 45.6955 29.3793 45.9836C37.6142 46.2717 42.6626 41.5047 42.6626 41.5047C42.6626 41.5047 43.7979 40.4923 43.3528 39.7017C42.9076 38.9111 41.7916 39.8958 41.7916 39.8958Z" fill="#F87C7A"/>
</svg>
