<svg width="55" height="55" viewBox="0 0 55 55" fill="none" xmlns="http://www.w3.org/2000/svg">
<path fill-rule="evenodd" clip-rule="evenodd" d="M36.8961 26.4707C36.8668 26.4308 36.855 26.3806 36.8633 26.3318L39.1237 13.1518C39.1387 13.0641 39.2147 13 39.3037 13H39.7629C39.8426 13 39.9131 13.0517 39.9371 13.1276L45.0384 29.2796C45.0613 29.3523 45.0367 29.4316 44.9766 29.4786L41.3924 32.277C41.3112 32.3404 41.1937 32.3242 41.1327 32.2411L36.8961 26.4707ZM9 35.1675C9 35.2465 9.0508 35.3166 9.12589 35.3411L16.7933 37.8481C16.8475 37.8658 16.9069 37.8572 16.9538 37.8248L34.4027 25.7785C34.4443 25.7498 34.4722 25.7052 34.4796 25.6552L36.3248 13.2742C36.3413 13.1638 36.2557 13.0646 36.1441 13.0646H20.8505C20.7962 13.0646 20.7446 13.0889 20.7099 13.1307L9.04203 27.2062C9.01487 27.239 9 27.2802 9 27.3228V35.1675ZM20.1504 38.5294L28.6602 41.317C28.7155 41.3351 28.7762 41.3257 28.8235 41.2918L38.8487 34.1007C38.9289 34.0432 38.9489 33.9323 38.8938 33.8504L35.2467 28.423C35.1901 28.3388 35.0757 28.3168 34.9919 28.3741L20.1504 38.5294Z" fill="#CEC18C"/>
</svg>
