<svg width="55" height="55" viewBox="0 0 55 55" fill="none" xmlns="http://www.w3.org/2000/svg">
<path fill-rule="evenodd" clip-rule="evenodd" d="M9.05111 27.7982C8.983 27.682 8.98296 27.538 9.05102 27.4217L17.9694 12.1843C18.0362 12.0702 18.1586 12 18.2909 12H35.971C36.1039 12 36.2268 12.0708 36.2934 12.1859L45.1139 27.4233C45.1808 27.5388 45.1807 27.6812 45.1138 27.7967L36.2934 43.0168C36.2268 43.1317 36.104 43.2025 35.9711 43.2025H18.2907C18.1585 43.2025 18.0362 43.1324 17.9693 43.0183L9.05111 27.7982ZM27.0843 36.0019C31.7239 36.0019 35.485 32.2408 35.485 27.6013C35.485 22.9617 31.7239 19.2006 27.0843 19.2006C22.4447 19.2006 18.6836 22.9617 18.6836 27.6013C18.6836 32.2408 22.4447 36.0019 27.0843 36.0019Z" fill="#5596A4"/>
</svg>
